<?xml version="1.0" encoding="iso-8859-1"?>
<!-- Generator: Adobe Illustrator 30.2.1, SVG Export Plug-In . SVG Version: 9.03 Build 0)  -->
<svg version="1.1" id="Layer_1" xmlns="http://www.w3.org/2000/svg" xmlns:xlink="http://www.w3.org/1999/xlink" x="0px" y="0px"
	 viewBox="0 0 620 620" style="enable-background:new 0 0 620 620;" xml:space="preserve">
<path style="fill:#73C9B9;" d="M451.866,539.664l-283.434,0.05c0.978-21.02,4.932-41.245,11.133-61.23
	c11.5-9.784,24.468-15.985,38.661-20.953l30.764-9.186c25.41-7.587,31.428-17.046,51.454-30.431
	c5.885-3.933,13.337-4.238,19.252,0.005l27.277,19.567c14.959,10.73,49.172,16.283,67.116,24.64
	c9.558,4.532,18.098,9.34,26.738,16.091C446.429,497.562,450.332,516.814,451.866,539.664z"/>
<path style="fill:#3A655D;" d="M251.139,261.405c-22.255-20.37-39.083-28.417-62.576-53.372c-3.71-3.941-3.231-9.968-0.19-13.532
	c3.342-3.917,9.971-4.272,13.946-0.378c5.312,5.204,10.199,10.464,15.834,15.36c11.766,10.223,23.847,19.137,36.173,28.634
	c11.408,8.79,21.082,18.79,28.186,31.088c12.074,20.901,10.481,44.736-3.976,64.157c-20.593,27.664-52.812,42.895-76.572,69.241
	c-35.279,40.923-46.729,98.71-49.727,151.893l315.782-0.085c-3.031-47.89-12.54-99.723-39.435-138.488
	c-9.915-13.631-21.249-25.072-34.464-35.481l-29.551-23.276c-25.943-20.434-45.392-50.679-29.105-83.927
	c9.089-18.554,24.671-31.004,40.951-43.235c26.937-20.236,50.782-41.355,67.912-70.81c2.782-4.784,8.501-5.992,13.086-3.537
	c4.142,2.218,6.204,8.325,3.492,13.133c-13.402,23.754-31.2,44.143-52.685,61.085l-31.432,24.787
	c-19.134,15.088-36.66,37.662-21.945,62.356c5.615,9.422,12.903,17.167,21.537,24.198c29.055,23.658,56.131,41.341,76.054,75.161
	c25.99,45.49,35.826,105.94,35.191,157.837l-355.09-0.013c-0.655-19.701,1.084-38.233,3.515-57.159
	c3.397-26.449,9.634-51.682,19.61-76.329c10.43-25.768,26.807-48.696,47.73-66.734l8.586-7.402l30.06-23.895
	c9.311-7.402,17.543-15.945,23.499-26.105C277.562,296.064,266.913,275.842,251.139,261.405z"/>
<path style="fill:#3A655D;" d="M492.594,584.365c10.28,0.211,16.527,8.84,16.02,17.882c-0.5,8.912-8.906,17.53-18.858,15.402
	l-359.617-0.001c-10.43,2.297-18.729-7.294-18.779-16.368c-0.063-11.275,8.675-17.262,19.816-17.261l346.506,0.04L492.594,584.365z"
	/>
<path style="fill:#3A655D;" d="M269.144,137.688l-121.823-0.114c-3.174-0.003-4.918-4.206-4.9-6.364
	c0.016-2.042,1.854-6.354,4.905-6.355l122.267-0.063c2.769,1.458,4.389,3.768,4.409,6.339
	C274.023,133.903,272.506,136.193,269.144,137.688z"/>
<path style="fill:#3A655D;" d="M278.499,174.339l-111.423,0.003c-3.979,0-6.788-1.738-7.384-5.24
	c-0.486-2.854,0.999-7.569,5.331-7.572l112.831-0.086c4.164-0.003,6.782,2.188,7.209,5.796
	C285.512,171.022,282.995,174.339,278.499,174.339z"/>
<path style="fill:#3A655D;" d="M346.625,104.376l-111.606,0.181c-3.817,0.006-6.656-1.579-7.39-4.516
	c-0.775-3.1,0.452-8.256,4.688-8.257l113.249-0.029c2.845-0.001,4.696,3.508,4.931,5.372S349.648,104.371,346.625,104.376z"/>
<path style="fill:#3A655D;" d="M412.888,174.327L309.21,174.36c-3.865,0.001-6.61-1.992-7.18-5.517
	c-0.385-2.384,1.108-7.35,4.952-7.349l107.804,0.036c3.465,0.001,5.23,4.353,5.089,6.589
	C419.648,171.726,417.096,174.325,412.888,174.327z"/>
<path style="fill:#3A655D;" d="M339.148,207.471l-99.064,0.03c-3.052,0.001-5.197-3.276-5.511-5.392
	c-0.359-2.417,0.991-7.492,4.505-7.493l100.731-0.025c3.1-0.001,4.841,4.427,4.818,6.529
	C344.601,203.336,342.87,207.47,339.148,207.471z"/>
<path style="fill:#3A655D;" d="M206.738,104.321l-66.743,0.232c-3.61,0.013-6.361-2.429-6.904-5.671
	c-0.393-2.344,1.551-7.103,4.935-7.103l67.646-0.012c2.598,0,4.52,3.526,4.799,5.376
	C210.748,98.995,209.521,104.311,206.738,104.321z"/>
<path style="fill:#3A655D;" d="M343.391,137.521l-47.339,0.095c-3.747,0.008-5.671-4.372-5.263-7.318
	c0.459-3.311,3.416-5.568,7.19-5.552l45.463,0.199c2.358,0.01,4.458,4.247,4.382,6.145S346.242,137.515,343.391,137.521z"/>
<path style="fill:#3A655D;" d="M446.105,104.264l-45.13,0.248c-2.867,0.016-5.155-3.274-5.432-5.381
	c-0.363-2.758,1.276-7.329,4.684-7.324l45.538,0.057c2.087,0.003,3.931,3.705,4.178,5.419
	C450.219,99.186,448.964,104.248,446.105,104.264z"/>
<path style="fill:#3A655D;" d="M432.507,137.424l-29.661,0.359c-3.396,0.041-6.339-1.893-7.04-4.708
	c-0.715-2.872,0.559-8.047,4.423-8.068l31.51-0.167c2.298-0.012,4.838,3.528,5.028,5.405
	C436.975,132.309,435.267,137.391,432.507,137.424z"/>
<path style="fill:#3A655D;" d="M365.888,222.056c-1.57,2.626-6.26,2.322-8.406,0.727c-1.951-1.449-3.173-5.237-1.561-7.987
	l14.458-24.664c1.848-3.153,5.359-4.323,8.388-2.819c2.758,1.369,4.506,5.665,2.66,8.752L365.888,222.056z"/>
<path style="fill:#3A655D;" d="M303.959,241.163l-23.042-0.074c-4.12-0.013-6.968-2.289-7.086-5.932
	c-0.135-4.176,2.47-6.866,7.087-6.878l23.051-0.061c4.359-0.011,7.266,2.144,7.501,5.887
	C311.768,238.83,308.787,241.179,303.959,241.163z"/>
<g>
	<path style="fill:#73C9B9;" d="M303.237,367.726c-1.188-1.615-0.959-4.34,0.487-5.13c3.137-1.374,4.706-3.617,4.926-6.243
		l-4.606-0.992l0.059-11.443l12.146-0.002c0.274,5.038,0.483,9.767-0.302,14.458C314.922,364.5,310.338,368.067,303.237,367.726z"/>
	<polygon style="fill:#73C9B9;" points="316.31,327.683 303.973,327.593 303.94,315.807 316.224,315.789 	"/>
	<polygon style="fill:#73C9B9;" points="465.415,56.656 477.663,56.485 477.754,14.312 465.582,13.847 465.704,5.081 489.023,5.014 
		489.123,65.228 465.786,65.471 	"/>
	<polygon style="fill:#73C9B9;" points="245.99,56.725 258.102,56.377 258.102,14.223 245.977,13.899 246.005,5.096 269.366,5.132 
		269.381,65.241 246.264,65.419 	"/>
	<polygon style="fill:#73C9B9;" points="142.019,56.405 154.372,56.632 154.105,65.312 130.816,65.355 130.814,5.166 154.232,5.041 
		154.3,13.888 142.037,14.133 	"/>
	<path style="fill:#73C9B9;" d="M422.253,55.401c-0.332-3.217-0.398-6.951-0.28-10.638l22.813-10.722l-22.956-10.348l0.269-11.002
		l34.719,16.299c0.962,2.967,0.954,6.698,0.542,10.202L422.253,55.401z"/>
	<path style="fill:#73C9B9;" d="M213.412,65.783c-3.467,0.684-7.249,0.671-10.757,0.209l27.658-63.857l10.711,0.109L213.412,65.783z
		"/>
	<path style="fill:#73C9B9;" d="M363.282,145.382c-3.784,0.3-6.521,0.304-10.866-0.077l27.83-63.539
		c3.637-0.494,6.834-0.502,10.72,0.006L363.282,145.382z"/>
	<path style="fill:#73C9B9;" d="M197.323,44.305c1.07,3.006,0.956,7.343,0.434,11.121l-34.631-16.001
		c-1.204-2.996-1.168-7.636,0.18-10.349l34.388-16.396c0.456,3.832,0.511,6.976,0.384,11.123l-23.135,10.328L197.323,44.305z"/>
	<path style="fill:#73C9B9;" d="M388.913,65.892c-3.235,0.499-6.837,0.495-10.71,0.056l27.749-63.531
		c3.36-0.531,6.736-0.538,10.664-0.066L388.913,65.892z"/>
	<path style="fill:#73C9B9;" d="M313.758,288.655c-3.569,0.691-7.016,0.664-11.029,0.021l27.536-62.987
		c3.453-0.653,6.922-0.645,10.873-0.059L313.758,288.655z"/>
	
		<rect x="348.061" y="33.363" transform="matrix(4.920959e-04 -1 1 4.920959e-04 298.5754 406.7498)" style="fill:#73C9B9;" width="9.403" height="41.301"/>
	<path style="fill:#73C9B9;" d="M286.687,75.128l-0.708-3.032c-0.592-2.535,6.023-1.741,6.476-8.045l-4.824-1.396l-0.061-11.451
		l12.592,0.132c0.037,5.506,0.063,9.287-0.32,13.919C299.277,72.12,292.716,76.033,286.687,75.128z"/>
	<path style="fill:#73C9B9;" d="M467.554,140.324c-0.844-0.042-2.066-2.581-1.648-3.236c2.482-3.885,6.279-1.792,6.328-8.405
		l-4.305-0.998l-0.102-11.134l12.378-0.041l-0.425,14.01C479.595,136.585,473.24,140.609,467.554,140.324z"/>
	<polygon style="fill:#73C9B9;" points="480.13,100.392 467.917,100.4 468.024,88.588 479.872,88.573 	"/>
	<rect x="287.358" y="23.259" style="fill:#73C9B9;" width="12.709" height="11.992"/>
</g>
</svg>
